<?xml version="1.0" encoding="UTF-8" standalone="no"?>
<!DOCTYPE svg PUBLIC "-//W3C//DTD SVG 1.1//EN" "http://www.w3.org/Graphics/SVG/1.1/DTD/svg11.dtd">
<svg width="100%" height="100%" viewBox="0 0 320 320" version="1.1" xmlns="http://www.w3.org/2000/svg" xmlns:xlink="http://www.w3.org/1999/xlink" xml:space="preserve" xmlns:serif="http://www.serif.com/" style="fill-rule:evenodd;clip-rule:evenodd;stroke-linecap:round;stroke-linejoin:round;stroke-miterlimit:1.5;">
    <g transform="matrix(1.22249,0,0,1.22249,-24.6424,-36.0358)">
        <circle cx="151.038" cy="160.358" r="123.873" style="fill:rgb(235,235,235);stroke:rgb(206,111,226);stroke-width:6.82px;"/>
    </g>
    <g transform="matrix(0.997365,0,0,0.997365,9.35961,20.0643)">
        <circle cx="151.038" cy="160.358" r="123.873" style="fill:rgb(235,235,235);stroke:rgb(206,111,226);stroke-width:8.36px;"/>
    </g>
    <g transform="matrix(0.813699,0,0,0.813699,37.1001,64.0433)">
        <circle cx="151.038" cy="160.358" r="123.873" style="fill:rgb(235,235,235);stroke:rgb(206,111,226);stroke-width:10.24px;"/>
    </g>
    <g transform="matrix(0.663856,0,0,0.663856,59.7322,99.1334)">
        <circle cx="151.038" cy="160.358" r="123.873" style="fill:rgb(235,235,235);stroke:rgb(206,111,226);stroke-width:12.55px;"/>
    </g>
    <g transform="matrix(0.541607,0,0,0.541607,78.1966,126.603)">
        <circle cx="151.038" cy="160.358" r="123.873" style="fill:rgb(235,235,235);stroke:rgb(206,111,226);stroke-width:15.39px;"/>
    </g>
    <g transform="matrix(0.431523,0,0,0.431523,94.8234,154.256)">
        <circle cx="151.038" cy="160.358" r="123.873" style="fill:rgb(235,235,235);stroke:rgb(206,111,226);stroke-width:19.31px;"/>
    </g>
    <g transform="matrix(0.343815,0,0,0.343815,108.071,176.288)">
        <circle cx="151.038" cy="160.358" r="123.873" style="fill:rgb(235,235,235);stroke:rgb(206,111,226);stroke-width:24.24px;"/>
    </g>
</svg>
